<svg xmlns="http://www.w3.org/2000/svg" width="13.398" height="12.398" viewBox="0 0 13.398 12.398">
  <g id="moon_black" transform="translate(-348 -50.801)">
    <path id="Path_1" data-name="Path 1" d="M6.223,12.4a6.191,6.191,0,0,0,5.846-4.222.363.363,0,0,0-.572-.4,4.309,4.309,0,0,1-2.731.965A4.376,4.376,0,0,1,4.383,4.383,4.43,4.43,0,0,1,6.448.672.363.363,0,0,0,6.266,0L6.223,0A6.233,6.233,0,0,0,0,6.2,6.233,6.233,0,0,0,6.223,12.4ZM5.1.842A5.09,5.09,0,0,0,10.9,9,5.47,5.47,0,1,1,5.1.842Z" transform="translate(348 50.801)" fill="#010101"/>
    <g id="Group_65" data-name="Group 65" transform="translate(-4 -71)">
      <circle id="Ellipse_1" data-name="Ellipse 1" cx="0.363" cy="0.363" r="0.363" transform="translate(363.945 122.527)" fill="#010101"/>
      <path id="Path_2" data-name="Path 2" d="M272.363,32.179a1.117,1.117,0,0,1,1.09,1.114.363.363,0,0,0,.726,0,1.117,1.117,0,0,1,1.09-1.114.363.363,0,1,0,0-.726,1.091,1.091,0,0,1-1.09-1.09.363.363,0,0,0-.726,0,1.091,1.091,0,0,1-1.09,1.09.363.363,0,1,0,0,.726Zm1.453-.728a1.833,1.833,0,0,0,.369.368,1.871,1.871,0,0,0-.369.375,1.87,1.87,0,0,0-.369-.375A1.832,1.832,0,0,0,273.816,31.452Z" transform="translate(87.586 92.527)" fill="#010101"/>
      <circle id="Ellipse_2" data-name="Ellipse 2" cx="0.363" cy="0.363" r="0.363" transform="translate(364.671 125.458)" fill="#010101"/>
    </g>
  </g>
</svg>
